{"title":"Emiliana Torrini - Jungle Drum - Die ZDF-Kultnacht - In The Summ","uid":8731677,"size":136493056,"categoryP":"video","categoryS":"music_videos","magnet":"?xt=urn:btih:e52bd983b5ca3f1b289d37fa6aa0c8cfc1d71eb3&amp;dn=Emiliana+Torrini+-+Jungle+Drum+-+Die+ZDF-Kultnacht+-+In+The+Summ&amp;tr=udp%3A%2F%2Ftracker.openbittorrent.com%3A80&amp;tr=udp%3A%2F%2Fopen.demonii.com%3A1337&amp;tr=udp%3A%2F%2Ftracker.coppersurfer.tk%3A6969&amp;tr=udp%3A%2F%2Fexodus.desync.com%3A6969","seeders":1,"leechers":0,"uploader":"mop27","files":-1,"time":1374616959,"description":"General\nComplete name                  : Emiliana Torrini - Jungle Drum - Die ZDF-Kultnacht - In The Summertime\nFormat                         : AVI\nFormat/Info                    : Audio Video Interleave\nFile size                      : 130 MiB\nDuration                       : 2mn 8s\nOverall bit rate               : 8 486 Kbps\nWriting application            : VirtualDubMod 1.5.10.3 | www.virtualdub-fr.org || (build 2550/release)\nWriting library                : VirtualDubMod build 2550/release\n\nVideo\nID                             : 0\nFormat                         : MPEG-4 Visual\nFormat profile                 : Advanced Simple@L5\nFormat settings, BVOP          : Yes\nFormat settings, QPel          : No\nFormat settings, GMC           : No warppoints\nFormat settings, Matrix        : Default (H.263)\nCodec ID                       : XVID\nCodec ID/Hint                  : XviD\nDuration                       : 2mn 8s\nBit rate                       : 6 939 Kbps\nWidth                          : 720 pixels\nHeight                         : 576 pixels\nDisplay aspect ratio           : 16:9\nFrame rate                     : 25.000 fps\nStandard                       : PAL\nColor space                    : YUV\nChroma subsampling             : 4:2:0\nBit depth                      : 8 bits\nScan type                      : Progressive\nCompression mode               : Lossy\nBits/(Pixel*Frame)             : 0.669\nStream size                    : 106 MiB (82%)\nWriting library                : XviD 64\n\nAudio\nID                             : 1\nFormat                         : PCM\nFormat settings, Endianness    : Little\nFormat settings, Sign          : Signed\nCodec ID                       : 1\nDuration                       : 2mn 8s\nBit rate mode                  : Constant\nBit rate                       : 1 536 Kbps\nChannel(s)                     : 2 channels\nSampling rate                  : 48.0 KHz\nBit depth                      : 16 bits\nStream size                    : 23.6 MiB (18%)\nAlignment                      : Aligned on interleaves\nInterleave, duration           : 40 ms (1.00 video frame)\nInterleave, preload duration   : 500 ms\n","torrent":{"xt":"urn:btih:e52bd983b5ca3f1b289d37fa6aa0c8cfc1d71eb3","amp;dn":"Emiliana+Torrini+-+Jungle+Drum+-+Die+ZDF-Kultnacht+-+In+The+Summ","amp;tr":["udp%3A%2F%2Ftracker.openbittorrent.com%3A80","udp%3A%2F%2Fopen.demonii.com%3A1337","udp%3A%2F%2Ftracker.coppersurfer.tk%3A6969","udp%3A%2F%2Fexodus.desync.com%3A6969"],"infoHash":"e52bd983b5ca3f1b289d37fa6aa0c8cfc1d71eb3","infoHashBuffer":{"type":"Buffer","data":[229,43,217,131,181,202,63,27,40,157,55,250,106,160,200,207,193,215,30,179]},"announce":[],"urlList":[]}}